Coordinates
version=1
nRows=6
nColumns=34
inDegrees=yes

Units are S.I. units (second, meters, Newtons, ...)
If the header above contains a line with 'inDegrees', this indicates whether rotational values are in degrees (yes) or radians (no).

endheader
time	pelvis_tilt	pelvis_list	pelvis_rotation	pelvis_tx	pelvis_ty	pelvis_tz	hip_flexion_r	hip_adduction_r	hip_rotation_r	knee_angle_r	ankle_angle_r	subtalar_angle_r	mtp_angle_r	hip_flexion_l	hip_adduction_l	hip_rotation_l	knee_angle_l	ankle_angle_l	subtalar_angle_l	mtp_angle_l	lumbar_extension	lumbar_bending	lumbar_rotation	arm_flex_r	arm_add_r	arm_rot_r	elbow_flex_r	pro_sup_r	arm_flex_l	arm_add_l	arm_rot_l	elbow_flex_l	pro_sup_l
      2.55000000	     -9.93500068	      0.58909642	     -3.55009201	      0.03711964	      0.79641988	     -0.09132716	     23.32535874	     -5.39323761	     -1.43107793	     26.40051146	      9.96580260	    -11.54338703	      0.00000000	     23.93267045	     -4.61288706	     -3.19891697	     26.70610472	      9.79367688	     -8.05783927	      0.00000000	     -8.98928023	     -0.44511894	      0.83749473	     62.42563433	     14.67847431	     68.66451856	    126.18039383	     97.60981814	     46.94658957	     15.54649046	     68.60797096	    126.17635961	     80.75540115
      2.56666670	     -9.90360749	      0.61386839	     -3.57645712	      0.03335968	      0.79339126	     -0.09075990	     24.58747818	     -5.50531412	     -1.32074181	     28.33348154	     10.65575951	    -11.81546930	      0.00000000	     25.31665177	     -4.79553890	     -3.23562228	     29.00153376	     10.43392982	     -8.13807856	      0.00000000	    -10.07472044	     -0.52658912	      0.79810229	     62.96883766	     14.73972942	     68.48995692	    126.00626944	     97.54048023	     48.03389528	     15.48202453	     68.56016639	    125.95284313	     80.82226194
      2.58333330	    -10.04432252	      0.54498175	     -3.64561278	      0.03092634	      0.79076106	     -0.09091281	     26.00654177	     -5.50977997	     -1.28262450	     30.26475020	     11.32048838	    -11.88987441	      0.00000000	     26.75932365	     -5.13207891	     -3.38515978	     31.07530008	     11.17029262	     -7.96093850	      0.00000000	    -10.83716875	     -0.46074445	      0.70938146	     63.43629546	     14.75606541	     68.40912673	    125.77172667	     97.46547286	     49.11985257	     15.25214766	     68.44953191	    125.47421793	     80.86182434
      2.60000000	    -10.68274800	      0.53364388	     -3.68246637	      0.02922585	      0.78867045	     -0.09092217	     27.84660424	     -5.58264354	     -1.55185982	     32.07291543	     11.92923248	    -11.70592591	      0.00000000	     28.73600483	     -5.49806654	     -3.72054668	     33.19273030	     11.93309429	     -7.36665640	      0.00000000	    -11.05406435	     -0.48463163	      0.72468463	     63.60009020	     14.61487914	     68.68136111	    125.48528179	     97.30811439	     49.58431866	     15.16549523	     68.94010802	    125.07972901	     80.93581083
      2.61666670	    -10.78260622	      0.58844895	     -3.63693540	      0.02560222	      0.78285509	     -0.09061529	     29.27023743	     -5.74826950	     -1.55713388	     34.15526358	     12.48668592	    -11.98713967	      0.00000000	     30.21100116	     -5.66762348	     -3.75320933	     35.30757137	     12.45857363	     -7.41048651	      0.00000000	    -12.17987458	     -0.61709109	      0.75840981	     64.27488984	     14.66992215	     68.61303536	    125.41586001	     97.23652532	     50.36734244	     15.28359767	     69.11682248	    125.17537136	     80.98087344
      2.63333330	    -11.51071416	      0.61091666	     -3.58065312	      0.02403237	      0.77753608	     -0.09055332	     31.44911350	     -5.89891310	     -1.63283335	     36.45508713	     13.11888410	    -12.01350550	      0.00000000	     32.26272957	     -5.96500743	     -3.98663714	     37.30371579	     13.41310105	     -6.93639063	      0.00000000	    -12.36776285	     -0.54371228	      0.95048400	     64.62900761	     14.41909634	     68.80842983	    125.29575153	     97.06131740	     50.83177900	     15.51807928	     70.58742678	    125.77832628	     81.14310319
